<svg class="lds-spinner" width="125px"  height="125px"  xmlns="http://www.w3.org/2000/svg" xmlns:xlink="http://www.w3.org/1999/xlink" viewBox="0 0 100 100" preserveAspectRatio="xMidYMid" style="background: none;"><g transform="rotate(0 50 50)">
  <rect x="47" y="27.5" rx="9.4" ry="5.5" width="6" height="5" fill="#562380">
    <animate attributeName="opacity" values="1;0" keyTimes="0;1" dur="1s" begin="-0.9886363636363636s" repeatCount="indefinite"></animate>
  </rect>
</g><g transform="rotate(4.090909090909091 50 50)">
  <rect x="47" y="27.5" rx="9.4" ry="5.5" width="6" height="5" fill="#562380">
    <animate attributeName="opacity" values="1;0" keyTimes="0;1" dur="1s" begin="-0.9772727272727273s" repeatCount="indefinite"></animate>
  </rect>
</g><g transform="rotate(8.181818181818182 50 50)">
  <rect x="47" y="27.5" rx="9.4" ry="5.5" width="6" height="5" fill="#562380">
    <animate attributeName="opacity" values="1;0" keyTimes="0;1" dur="1s" begin="-0.9659090909090909s" repeatCount="indefinite"></animate>
  </rect>
</g><g transform="rotate(12.272727272727273 50 50)">
  <rect x="47" y="27.5" rx="9.4" ry="5.5" width="6" height="5" fill="#562380">
    <animate attributeName="opacity" values="1;0" keyTimes="0;1" dur="1s" begin="-0.9545454545454546s" repeatCount="indefinite"></animate>
  </rect>
</g><g transform="rotate(16.363636363636363 50 50)">
  <rect x="47" y="27.5" rx="9.4" ry="5.5" width="6" height="5" fill="#562380">
    <animate attributeName="opacity" values="1;0" keyTimes="0;1" dur="1s" begin="-0.9431818181818182s" repeatCount="indefinite"></animate>
  </rect>
</g><g transform="rotate(20.454545454545453 50 50)">
  <rect x="47" y="27.5" rx="9.4" ry="5.5" width="6" height="5" fill="#562380">
    <animate attributeName="opacity" values="1;0" keyTimes="0;1" dur="1s" begin="-0.9318181818181818s" repeatCount="indefinite"></animate>
  </rect>
</g><g transform="rotate(24.545454545454547 50 50)">
  <rect x="47" y="27.5" rx="9.4" ry="5.5" width="6" height="5" fill="#562380">
    <animate attributeName="opacity" values="1;0" keyTimes="0;1" dur="1s" begin="-0.9204545454545454s" repeatCount="indefinite"></animate>
  </rect>
</g><g transform="rotate(28.636363636363637 50 50)">
  <rect x="47" y="27.5" rx="9.4" ry="5.5" width="6" height="5" fill="#562380">
    <animate attributeName="opacity" values="1;0" keyTimes="0;1" dur="1s" begin="-0.9090909090909091s" repeatCount="indefinite"></animate>
  </rect>
</g><g transform="rotate(32.72727272727273 50 50)">
  <rect x="47" y="27.5" rx="9.4" ry="5.5" width="6" height="5" fill="#562380">
    <animate attributeName="opacity" values="1;0" keyTimes="0;1" dur="1s" begin="-0.8977272727272727s" repeatCount="indefinite"></animate>
  </rect>
</g><g transform="rotate(36.81818181818182 50 50)">
  <rect x="47" y="27.5" rx="9.4" ry="5.5" width="6" height="5" fill="#562380">
    <animate attributeName="opacity" values="1;0" keyTimes="0;1" dur="1s" begin="-0.8863636363636364s" repeatCount="indefinite"></animate>
  </rect>
</g><g transform="rotate(40.90909090909091 50 50)">
  <rect x="47" y="27.5" rx="9.4" ry="5.5" width="6" height="5" fill="#562380">
    <animate attributeName="opacity" values="1;0" keyTimes="0;1" dur="1s" begin="-0.875s" repeatCount="indefinite"></animate>
  </rect>
</g><g transform="rotate(45 50 50)">
  <rect x="47" y="27.5" rx="9.4" ry="5.5" width="6" height="5" fill="#562380">
    <animate attributeName="opacity" values="1;0" keyTimes="0;1" dur="1s" begin="-0.8636363636363636s" repeatCount="indefinite"></animate>
  </rect>
</g><g transform="rotate(49.09090909090909 50 50)">
  <rect x="47" y="27.5" rx="9.4" ry="5.5" width="6" height="5" fill="#562380">
    <animate attributeName="opacity" values="1;0" keyTimes="0;1" dur="1s" begin="-0.8522727272727273s" repeatCount="indefinite"></animate>
  </rect>
</g><g transform="rotate(53.18181818181818 50 50)">
  <rect x="47" y="27.5" rx="9.4" ry="5.5" width="6" height="5" fill="#562380">
    <animate attributeName="opacity" values="1;0" keyTimes="0;1" dur="1s" begin="-0.8409090909090909s" repeatCount="indefinite"></animate>
  </rect>
</g><g transform="rotate(57.27272727272727 50 50)">
  <rect x="47" y="27.5" rx="9.4" ry="5.5" width="6" height="5" fill="#562380">
    <animate attributeName="opacity" values="1;0" keyTimes="0;1" dur="1s" begin="-0.8295454545454546s" repeatCount="indefinite"></animate>
  </rect>
</g><g transform="rotate(61.36363636363637 50 50)">
  <rect x="47" y="27.5" rx="9.4" ry="5.5" width="6" height="5" fill="#562380">
    <animate attributeName="opacity" values="1;0" keyTimes="0;1" dur="1s" begin="-0.8181818181818182s" repeatCount="indefinite"></animate>
  </rect>
</g><g transform="rotate(65.45454545454545 50 50)">
  <rect x="47" y="27.5" rx="9.4" ry="5.5" width="6" height="5" fill="#562380">
    <animate attributeName="opacity" values="1;0" keyTimes="0;1" dur="1s" begin="-0.8068181818181818s" repeatCount="indefinite"></animate>
  </rect>
</g><g transform="rotate(69.54545454545455 50 50)">
  <rect x="47" y="27.5" rx="9.4" ry="5.5" width="6" height="5" fill="#562380">
    <animate attributeName="opacity" values="1;0" keyTimes="0;1" dur="1s" begin="-0.7954545454545454s" repeatCount="indefinite"></animate>
  </rect>
</g><g transform="rotate(73.63636363636364 50 50)">
  <rect x="47" y="27.5" rx="9.4" ry="5.5" width="6" height="5" fill="#562380">
    <animate attributeName="opacity" values="1;0" keyTimes="0;1" dur="1s" begin="-0.7840909090909091s" repeatCount="indefinite"></animate>
  </rect>
</g><g transform="rotate(77.72727272727273 50 50)">
  <rect x="47" y="27.5" rx="9.4" ry="5.5" width="6" height="5" fill="#562380">
    <animate attributeName="opacity" values="1;0" keyTimes="0;1" dur="1s" begin="-0.7727272727272727s" repeatCount="indefinite"></animate>
  </rect>
</g><g transform="rotate(81.81818181818181 50 50)">
  <rect x="47" y="27.5" rx="9.4" ry="5.5" width="6" height="5" fill="#562380">
    <animate attributeName="opacity" values="1;0" keyTimes="0;1" dur="1s" begin="-0.7613636363636364s" repeatCount="indefinite"></animate>
  </rect>
</g><g transform="rotate(85.9090909090909 50 50)">
  <rect x="47" y="27.5" rx="9.4" ry="5.5" width="6" height="5" fill="#562380">
    <animate attributeName="opacity" values="1;0" keyTimes="0;1" dur="1s" begin="-0.75s" repeatCount="indefinite"></animate>
  </rect>
</g><g transform="rotate(90 50 50)">
  <rect x="47" y="27.5" rx="9.4" ry="5.5" width="6" height="5" fill="#562380">
    <animate attributeName="opacity" values="1;0" keyTimes="0;1" dur="1s" begin="-0.7386363636363636s" repeatCount="indefinite"></animate>
  </rect>
</g><g transform="rotate(94.0909090909091 50 50)">
  <rect x="47" y="27.5" rx="9.4" ry="5.5" width="6" height="5" fill="#562380">
    <animate attributeName="opacity" values="1;0" keyTimes="0;1" dur="1s" begin="-0.7272727272727273s" repeatCount="indefinite"></animate>
  </rect>
</g><g transform="rotate(98.18181818181819 50 50)">
  <rect x="47" y="27.5" rx="9.4" ry="5.5" width="6" height="5" fill="#562380">
    <animate attributeName="opacity" values="1;0" keyTimes="0;1" dur="1s" begin="-0.7159090909090909s" repeatCount="indefinite"></animate>
  </rect>
</g><g transform="rotate(102.27272727272727 50 50)">
  <rect x="47" y="27.5" rx="9.4" ry="5.5" width="6" height="5" fill="#562380">
    <animate attributeName="opacity" values="1;0" keyTimes="0;1" dur="1s" begin="-0.7045454545454546s" repeatCount="indefinite"></animate>
  </rect>
</g><g transform="rotate(106.36363636363636 50 50)">
  <rect x="47" y="27.5" rx="9.4" ry="5.5" width="6" height="5" fill="#562380">
    <animate attributeName="opacity" values="1;0" keyTimes="0;1" dur="1s" begin="-0.6931818181818182s" repeatCount="indefinite"></animate>
  </rect>
</g><g transform="rotate(110.45454545454545 50 50)">
  <rect x="47" y="27.5" rx="9.4" ry="5.5" width="6" height="5" fill="#562380">
    <animate attributeName="opacity" values="1;0" keyTimes="0;1" dur="1s" begin="-0.6818181818181818s" repeatCount="indefinite"></animate>
  </rect>
</g><g transform="rotate(114.54545454545455 50 50)">
  <rect x="47" y="27.5" rx="9.4" ry="5.5" width="6" height="5" fill="#562380">
    <animate attributeName="opacity" values="1;0" keyTimes="0;1" dur="1s" begin="-0.6704545454545454s" repeatCount="indefinite"></animate>
  </rect>
</g><g transform="rotate(118.63636363636364 50 50)">
  <rect x="47" y="27.5" rx="9.4" ry="5.5" width="6" height="5" fill="#562380">
    <animate attributeName="opacity" values="1;0" keyTimes="0;1" dur="1s" begin="-0.6590909090909091s" repeatCount="indefinite"></animate>
  </rect>
</g><g transform="rotate(122.72727272727273 50 50)">
  <rect x="47" y="27.5" rx="9.4" ry="5.5" width="6" height="5" fill="#562380">
    <animate attributeName="opacity" values="1;0" keyTimes="0;1" dur="1s" begin="-0.6477272727272727s" repeatCount="indefinite"></animate>
  </rect>
</g><g transform="rotate(126.81818181818181 50 50)">
  <rect x="47" y="27.5" rx="9.4" ry="5.5" width="6" height="5" fill="#562380">
    <animate attributeName="opacity" values="1;0" keyTimes="0;1" dur="1s" begin="-0.6363636363636364s" repeatCount="indefinite"></animate>
  </rect>
</g><g transform="rotate(130.9090909090909 50 50)">
  <rect x="47" y="27.5" rx="9.4" ry="5.5" width="6" height="5" fill="#562380">
    <animate attributeName="opacity" values="1;0" keyTimes="0;1" dur="1s" begin="-0.625s" repeatCount="indefinite"></animate>
  </rect>
</g><g transform="rotate(135 50 50)">
  <rect x="47" y="27.5" rx="9.4" ry="5.5" width="6" height="5" fill="#562380">
    <animate attributeName="opacity" values="1;0" keyTimes="0;1" dur="1s" begin="-0.6136363636363636s" repeatCount="indefinite"></animate>
  </rect>
</g><g transform="rotate(139.0909090909091 50 50)">
  <rect x="47" y="27.5" rx="9.4" ry="5.5" width="6" height="5" fill="#562380">
    <animate attributeName="opacity" values="1;0" keyTimes="0;1" dur="1s" begin="-0.6022727272727273s" repeatCount="indefinite"></animate>
  </rect>
</g><g transform="rotate(143.1818181818182 50 50)">
  <rect x="47" y="27.5" rx="9.4" ry="5.5" width="6" height="5" fill="#562380">
    <animate attributeName="opacity" values="1;0" keyTimes="0;1" dur="1s" begin="-0.5909090909090909s" repeatCount="indefinite"></animate>
  </rect>
</g><g transform="rotate(147.27272727272728 50 50)">
  <rect x="47" y="27.5" rx="9.4" ry="5.5" width="6" height="5" fill="#562380">
    <animate attributeName="opacity" values="1;0" keyTimes="0;1" dur="1s" begin="-0.5795454545454546s" repeatCount="indefinite"></animate>
  </rect>
</g><g transform="rotate(151.36363636363637 50 50)">
  <rect x="47" y="27.5" rx="9.4" ry="5.5" width="6" height="5" fill="#562380">
    <animate attributeName="opacity" values="1;0" keyTimes="0;1" dur="1s" begin="-0.5681818181818182s" repeatCount="indefinite"></animate>
  </rect>
</g><g transform="rotate(155.45454545454547 50 50)">
  <rect x="47" y="27.5" rx="9.4" ry="5.5" width="6" height="5" fill="#562380">
    <animate attributeName="opacity" values="1;0" keyTimes="0;1" dur="1s" begin="-0.5568181818181818s" repeatCount="indefinite"></animate>
  </rect>
</g><g transform="rotate(159.54545454545453 50 50)">
  <rect x="47" y="27.5" rx="9.4" ry="5.5" width="6" height="5" fill="#562380">
    <animate attributeName="opacity" values="1;0" keyTimes="0;1" dur="1s" begin="-0.5454545454545454s" repeatCount="indefinite"></animate>
  </rect>
</g><g transform="rotate(163.63636363636363 50 50)">
  <rect x="47" y="27.5" rx="9.4" ry="5.5" width="6" height="5" fill="#562380">
    <animate attributeName="opacity" values="1;0" keyTimes="0;1" dur="1s" begin="-0.5340909090909091s" repeatCount="indefinite"></animate>
  </rect>
</g><g transform="rotate(167.72727272727272 50 50)">
  <rect x="47" y="27.5" rx="9.4" ry="5.5" width="6" height="5" fill="#562380">
    <animate attributeName="opacity" values="1;0" keyTimes="0;1" dur="1s" begin="-0.5227272727272727s" repeatCount="indefinite"></animate>
  </rect>
</g><g transform="rotate(171.8181818181818 50 50)">
  <rect x="47" y="27.5" rx="9.4" ry="5.5" width="6" height="5" fill="#562380">
    <animate attributeName="opacity" values="1;0" keyTimes="0;1" dur="1s" begin="-0.5113636363636364s" repeatCount="indefinite"></animate>
  </rect>
</g><g transform="rotate(175.9090909090909 50 50)">
  <rect x="47" y="27.5" rx="9.4" ry="5.5" width="6" height="5" fill="#562380">
    <animate attributeName="opacity" values="1;0" keyTimes="0;1" dur="1s" begin="-0.5s" repeatCount="indefinite"></animate>
  </rect>
</g><g transform="rotate(180 50 50)">
  <rect x="47" y="27.5" rx="9.4" ry="5.5" width="6" height="5" fill="#562380">
    <animate attributeName="opacity" values="1;0" keyTimes="0;1" dur="1s" begin="-0.48863636363636365s" repeatCount="indefinite"></animate>
  </rect>
</g><g transform="rotate(184.0909090909091 50 50)">
  <rect x="47" y="27.5" rx="9.4" ry="5.5" width="6" height="5" fill="#562380">
    <animate attributeName="opacity" values="1;0" keyTimes="0;1" dur="1s" begin="-0.4772727272727273s" repeatCount="indefinite"></animate>
  </rect>
</g><g transform="rotate(188.1818181818182 50 50)">
  <rect x="47" y="27.5" rx="9.4" ry="5.5" width="6" height="5" fill="#562380">
    <animate attributeName="opacity" values="1;0" keyTimes="0;1" dur="1s" begin="-0.4659090909090909s" repeatCount="indefinite"></animate>
  </rect>
</g><g transform="rotate(192.27272727272728 50 50)">
  <rect x="47" y="27.5" rx="9.4" ry="5.5" width="6" height="5" fill="#562380">
    <animate attributeName="opacity" values="1;0" keyTimes="0;1" dur="1s" begin="-0.45454545454545453s" repeatCount="indefinite"></animate>
  </rect>
</g><g transform="rotate(196.36363636363637 50 50)">
  <rect x="47" y="27.5" rx="9.4" ry="5.5" width="6" height="5" fill="#562380">
    <animate attributeName="opacity" values="1;0" keyTimes="0;1" dur="1s" begin="-0.4431818181818182s" repeatCount="indefinite"></animate>
  </rect>
</g><g transform="rotate(200.45454545454547 50 50)">
  <rect x="47" y="27.5" rx="9.4" ry="5.5" width="6" height="5" fill="#562380">
    <animate attributeName="opacity" values="1;0" keyTimes="0;1" dur="1s" begin="-0.4318181818181818s" repeatCount="indefinite"></animate>
  </rect>
</g><g transform="rotate(204.54545454545453 50 50)">
  <rect x="47" y="27.5" rx="9.4" ry="5.5" width="6" height="5" fill="#562380">
    <animate attributeName="opacity" values="1;0" keyTimes="0;1" dur="1s" begin="-0.42045454545454547s" repeatCount="indefinite"></animate>
  </rect>
</g><g transform="rotate(208.63636363636363 50 50)">
  <rect x="47" y="27.5" rx="9.4" ry="5.5" width="6" height="5" fill="#562380">
    <animate attributeName="opacity" values="1;0" keyTimes="0;1" dur="1s" begin="-0.4090909090909091s" repeatCount="indefinite"></animate>
  </rect>
</g><g transform="rotate(212.72727272727272 50 50)">
  <rect x="47" y="27.5" rx="9.4" ry="5.5" width="6" height="5" fill="#562380">
    <animate attributeName="opacity" values="1;0" keyTimes="0;1" dur="1s" begin="-0.3977272727272727s" repeatCount="indefinite"></animate>
  </rect>
</g><g transform="rotate(216.8181818181818 50 50)">
  <rect x="47" y="27.5" rx="9.4" ry="5.5" width="6" height="5" fill="#562380">
    <animate attributeName="opacity" values="1;0" keyTimes="0;1" dur="1s" begin="-0.38636363636363635s" repeatCount="indefinite"></animate>
  </rect>
</g><g transform="rotate(220.9090909090909 50 50)">
  <rect x="47" y="27.5" rx="9.4" ry="5.5" width="6" height="5" fill="#562380">
    <animate attributeName="opacity" values="1;0" keyTimes="0;1" dur="1s" begin="-0.375s" repeatCount="indefinite"></animate>
  </rect>
</g><g transform="rotate(225 50 50)">
  <rect x="47" y="27.5" rx="9.4" ry="5.5" width="6" height="5" fill="#562380">
    <animate attributeName="opacity" values="1;0" keyTimes="0;1" dur="1s" begin="-0.36363636363636365s" repeatCount="indefinite"></animate>
  </rect>
</g><g transform="rotate(229.0909090909091 50 50)">
  <rect x="47" y="27.5" rx="9.4" ry="5.5" width="6" height="5" fill="#562380">
    <animate attributeName="opacity" values="1;0" keyTimes="0;1" dur="1s" begin="-0.3522727272727273s" repeatCount="indefinite"></animate>
  </rect>
</g><g transform="rotate(233.1818181818182 50 50)">
  <rect x="47" y="27.5" rx="9.4" ry="5.5" width="6" height="5" fill="#562380">
    <animate attributeName="opacity" values="1;0" keyTimes="0;1" dur="1s" begin="-0.3409090909090909s" repeatCount="indefinite"></animate>
  </rect>
</g><g transform="rotate(237.27272727272728 50 50)">
  <rect x="47" y="27.5" rx="9.4" ry="5.5" width="6" height="5" fill="#562380">
    <animate attributeName="opacity" values="1;0" keyTimes="0;1" dur="1s" begin="-0.32954545454545453s" repeatCount="indefinite"></animate>
  </rect>
</g><g transform="rotate(241.36363636363637 50 50)">
  <rect x="47" y="27.5" rx="9.4" ry="5.5" width="6" height="5" fill="#562380">
    <animate attributeName="opacity" values="1;0" keyTimes="0;1" dur="1s" begin="-0.3181818181818182s" repeatCount="indefinite"></animate>
  </rect>
</g><g transform="rotate(245.45454545454547 50 50)">
  <rect x="47" y="27.5" rx="9.4" ry="5.5" width="6" height="5" fill="#562380">
    <animate attributeName="opacity" values="1;0" keyTimes="0;1" dur="1s" begin="-0.3068181818181818s" repeatCount="indefinite"></animate>
  </rect>
</g><g transform="rotate(249.54545454545453 50 50)">
  <rect x="47" y="27.5" rx="9.4" ry="5.5" width="6" height="5" fill="#562380">
    <animate attributeName="opacity" values="1;0" keyTimes="0;1" dur="1s" begin="-0.29545454545454547s" repeatCount="indefinite"></animate>
  </rect>
</g><g transform="rotate(253.63636363636363 50 50)">
  <rect x="47" y="27.5" rx="9.4" ry="5.5" width="6" height="5" fill="#562380">
    <animate attributeName="opacity" values="1;0" keyTimes="0;1" dur="1s" begin="-0.2840909090909091s" repeatCount="indefinite"></animate>
  </rect>
</g><g transform="rotate(257.72727272727275 50 50)">
  <rect x="47" y="27.5" rx="9.4" ry="5.5" width="6" height="5" fill="#562380">
    <animate attributeName="opacity" values="1;0" keyTimes="0;1" dur="1s" begin="-0.2727272727272727s" repeatCount="indefinite"></animate>
  </rect>
</g><g transform="rotate(261.8181818181818 50 50)">
  <rect x="47" y="27.5" rx="9.4" ry="5.5" width="6" height="5" fill="#562380">
    <animate attributeName="opacity" values="1;0" keyTimes="0;1" dur="1s" begin="-0.26136363636363635s" repeatCount="indefinite"></animate>
  </rect>
</g><g transform="rotate(265.90909090909093 50 50)">
  <rect x="47" y="27.5" rx="9.4" ry="5.5" width="6" height="5" fill="#562380">
    <animate attributeName="opacity" values="1;0" keyTimes="0;1" dur="1s" begin="-0.25s" repeatCount="indefinite"></animate>
  </rect>
</g><g transform="rotate(270 50 50)">
  <rect x="47" y="27.5" rx="9.4" ry="5.5" width="6" height="5" fill="#562380">
    <animate attributeName="opacity" values="1;0" keyTimes="0;1" dur="1s" begin="-0.23863636363636365s" repeatCount="indefinite"></animate>
  </rect>
</g><g transform="rotate(274.09090909090907 50 50)">
  <rect x="47" y="27.5" rx="9.4" ry="5.5" width="6" height="5" fill="#562380">
    <animate attributeName="opacity" values="1;0" keyTimes="0;1" dur="1s" begin="-0.22727272727272727s" repeatCount="indefinite"></animate>
  </rect>
</g><g transform="rotate(278.1818181818182 50 50)">
  <rect x="47" y="27.5" rx="9.4" ry="5.5" width="6" height="5" fill="#562380">
    <animate attributeName="opacity" values="1;0" keyTimes="0;1" dur="1s" begin="-0.2159090909090909s" repeatCount="indefinite"></animate>
  </rect>
</g><g transform="rotate(282.27272727272725 50 50)">
  <rect x="47" y="27.5" rx="9.4" ry="5.5" width="6" height="5" fill="#562380">
    <animate attributeName="opacity" values="1;0" keyTimes="0;1" dur="1s" begin="-0.20454545454545456s" repeatCount="indefinite"></animate>
  </rect>
</g><g transform="rotate(286.3636363636364 50 50)">
  <rect x="47" y="27.5" rx="9.4" ry="5.5" width="6" height="5" fill="#562380">
    <animate attributeName="opacity" values="1;0" keyTimes="0;1" dur="1s" begin="-0.19318181818181818s" repeatCount="indefinite"></animate>
  </rect>
</g><g transform="rotate(290.45454545454544 50 50)">
  <rect x="47" y="27.5" rx="9.4" ry="5.5" width="6" height="5" fill="#562380">
    <animate attributeName="opacity" values="1;0" keyTimes="0;1" dur="1s" begin="-0.18181818181818182s" repeatCount="indefinite"></animate>
  </rect>
</g><g transform="rotate(294.54545454545456 50 50)">
  <rect x="47" y="27.5" rx="9.4" ry="5.5" width="6" height="5" fill="#562380">
    <animate attributeName="opacity" values="1;0" keyTimes="0;1" dur="1s" begin="-0.17045454545454544s" repeatCount="indefinite"></animate>
  </rect>
</g><g transform="rotate(298.6363636363636 50 50)">
  <rect x="47" y="27.5" rx="9.4" ry="5.5" width="6" height="5" fill="#562380">
    <animate attributeName="opacity" values="1;0" keyTimes="0;1" dur="1s" begin="-0.1590909090909091s" repeatCount="indefinite"></animate>
  </rect>
</g><g transform="rotate(302.72727272727275 50 50)">
  <rect x="47" y="27.5" rx="9.4" ry="5.5" width="6" height="5" fill="#562380">
    <animate attributeName="opacity" values="1;0" keyTimes="0;1" dur="1s" begin="-0.14772727272727273s" repeatCount="indefinite"></animate>
  </rect>
</g><g transform="rotate(306.8181818181818 50 50)">
  <rect x="47" y="27.5" rx="9.4" ry="5.5" width="6" height="5" fill="#562380">
    <animate attributeName="opacity" values="1;0" keyTimes="0;1" dur="1s" begin="-0.13636363636363635s" repeatCount="indefinite"></animate>
  </rect>
</g><g transform="rotate(310.90909090909093 50 50)">
  <rect x="47" y="27.5" rx="9.4" ry="5.5" width="6" height="5" fill="#562380">
    <animate attributeName="opacity" values="1;0" keyTimes="0;1" dur="1s" begin="-0.125s" repeatCount="indefinite"></animate>
  </rect>
</g><g transform="rotate(315 50 50)">
  <rect x="47" y="27.5" rx="9.4" ry="5.5" width="6" height="5" fill="#562380">
    <animate attributeName="opacity" values="1;0" keyTimes="0;1" dur="1s" begin="-0.11363636363636363s" repeatCount="indefinite"></animate>
  </rect>
</g><g transform="rotate(319.09090909090907 50 50)">
  <rect x="47" y="27.5" rx="9.4" ry="5.5" width="6" height="5" fill="#562380">
    <animate attributeName="opacity" values="1;0" keyTimes="0;1" dur="1s" begin="-0.10227272727272728s" repeatCount="indefinite"></animate>
  </rect>
</g><g transform="rotate(323.1818181818182 50 50)">
  <rect x="47" y="27.5" rx="9.4" ry="5.5" width="6" height="5" fill="#562380">
    <animate attributeName="opacity" values="1;0" keyTimes="0;1" dur="1s" begin="-0.09090909090909091s" repeatCount="indefinite"></animate>
  </rect>
</g><g transform="rotate(327.27272727272725 50 50)">
  <rect x="47" y="27.5" rx="9.4" ry="5.5" width="6" height="5" fill="#562380">
    <animate attributeName="opacity" values="1;0" keyTimes="0;1" dur="1s" begin="-0.07954545454545454s" repeatCount="indefinite"></animate>
  </rect>
</g><g transform="rotate(331.3636363636364 50 50)">
  <rect x="47" y="27.5" rx="9.4" ry="5.5" width="6" height="5" fill="#562380">
    <animate attributeName="opacity" values="1;0" keyTimes="0;1" dur="1s" begin="-0.06818181818181818s" repeatCount="indefinite"></animate>
  </rect>
</g><g transform="rotate(335.45454545454544 50 50)">
  <rect x="47" y="27.5" rx="9.4" ry="5.5" width="6" height="5" fill="#562380">
    <animate attributeName="opacity" values="1;0" keyTimes="0;1" dur="1s" begin="-0.056818181818181816s" repeatCount="indefinite"></animate>
  </rect>
</g><g transform="rotate(339.54545454545456 50 50)">
  <rect x="47" y="27.5" rx="9.4" ry="5.5" width="6" height="5" fill="#562380">
    <animate attributeName="opacity" values="1;0" keyTimes="0;1" dur="1s" begin="-0.045454545454545456s" repeatCount="indefinite"></animate>
  </rect>
</g><g transform="rotate(343.6363636363636 50 50)">
  <rect x="47" y="27.5" rx="9.4" ry="5.5" width="6" height="5" fill="#562380">
    <animate attributeName="opacity" values="1;0" keyTimes="0;1" dur="1s" begin="-0.03409090909090909s" repeatCount="indefinite"></animate>
  </rect>
</g><g transform="rotate(347.72727272727275 50 50)">
  <rect x="47" y="27.5" rx="9.4" ry="5.5" width="6" height="5" fill="#562380">
    <animate attributeName="opacity" values="1;0" keyTimes="0;1" dur="1s" begin="-0.022727272727272728s" repeatCount="indefinite"></animate>
  </rect>
</g><g transform="rotate(351.8181818181818 50 50)">
  <rect x="47" y="27.5" rx="9.4" ry="5.5" width="6" height="5" fill="#562380">
    <animate attributeName="opacity" values="1;0" keyTimes="0;1" dur="1s" begin="-0.011363636363636364s" repeatCount="indefinite"></animate>
  </rect>
</g><g transform="rotate(355.90909090909093 50 50)">
  <rect x="47" y="27.5" rx="9.4" ry="5.5" width="6" height="5" fill="#562380">
    <animate attributeName="opacity" values="1;0" keyTimes="0;1" dur="1s" begin="0s" repeatCount="indefinite"></animate>
  </rect>
</g></svg>