<svg xmlns="http://www.w3.org/2000/svg" viewBox="0 0 452.78 487.7"><defs><style>.cls-1{isolation:isolate;}.cls-2{fill:#ea4b88;}.cls-3,.cls-7{fill:#1b1464;}.cls-4{fill:#82cdc4;}.cls-5{fill:#fff;}.cls-6{mix-blend-mode:multiply;}.cls-7{fill-rule:evenodd;}</style></defs><title>Asset 1</title><g class="cls-1"><g id="Layer_2" data-name="Layer 2"><g id="Layer_1-2" data-name="Layer 1"><path class="cls-2" d="M323.52,114.83A81.53,81.53,0,1,1,242,33.31,81.53,81.53,0,0,1,323.52,114.83Z"/><path class="cls-3" d="M242,202.69a87.86,87.86,0,1,1,87.86-87.86A88,88,0,0,1,242,202.69Zm0-163a75.18,75.18,0,1,0,75.17,75.18A75.26,75.26,0,0,0,242,39.65Z"/><path class="cls-3" d="M144.75,228.27c18.71-63.14,82.9-100.14,143.38-82.23,49.75,14.74,81.48,59.85,80.77,112.85h15.22c.88-56-35.08-111-91.49-127.69-68.51-20.3-141.23,20.88-162.42,92.39a129.59,129.59,0,0,0-5.76,35.3h15.22C140,245.89,141.65,238.71,144.75,228.27Z"/><path class="cls-4" d="M288.13,146.4c-60.48-17.93-124.67,18.38-143.38,81.51-3.1,10.45-4.74,18-5.08,31H368.9C369.61,205.89,337.88,161.14,288.13,146.4Z"/><polygon class="cls-5" points="322.04 113.61 167.28 126.86 194.21 258.89 318.36 258.89 322.04 113.61"/><polygon class="cls-3" points="152.02 115.97 181.27 258.89 187.74 258.89 194.21 258.89 167.28 127.21 322.04 113.25 318.36 258.89 324.7 258.89 331.04 258.89 335.07 99.25 152.02 115.97"/><path class="cls-5" d="M336.9,135.43a746.55,746.55,0,0,1-183,18.36q.09-22.64.49-45.25A702.31,702.31,0,0,0,326.54,91.39Q331.56,113.44,336.9,135.43Z"/><path class="cls-3" d="M171.26,160.33c-5.8,0-11.69-.07-17.49-.21l-6.23-.14,0-6.22c.07-15,.24-30.28.5-45.33l.12-6.38,6.37.16a697.43,697.43,0,0,0,170.58-17l6.18-1.4,1.4,6.17c3.33,14.57,6.81,29.37,10.34,44l1.51,6.24-6.26,1.43A754,754,0,0,1,171.26,160.33Zm-11-12.76c3.67.05,7.34.08,11,.08a742,742,0,0,0,158-17c-2.53-10.55-5-21.17-7.45-31.71a708.77,708.77,0,0,1-150.47,16.14c-3.54,0-7.1,0-10.67-.08C160.46,125.84,160.35,136.75,160.28,147.57Z"/><path class="cls-3" d="M236.3,185.5s1.85-21.45-13.31-21.12c0,0-10.86,2.19-8.08,22.37C214.91,186.75,222.89,151,236.3,185.5Z"/><path class="cls-3" d="M316.2,174.32s1.86-21.46-13.31-21.13c0,0-10.85,2.19-8.07,22.37C294.82,175.56,302.79,139.76,316.2,174.32Z"/><path class="cls-5" d="M215.48,78.19,203.86,39.74c-3.06-10.15-6.55-12.52-7.54-13a2,2,0,0,0-.9-.25l-.06,0-14.08,4.26-5.83-19.31,13.93-4.19a21.15,21.15,0,0,1,15.77,1.34c8.07,3.94,14.13,12.45,18,25.3l11.61,38.45Z"/><path class="cls-3" d="M211.24,86.09,197.79,41.57a29.37,29.37,0,0,0-3.52-8.11l-17.22,5.21L167.56,7.23l20-6A25.93,25.93,0,0,1,195.48,0a28.21,28.21,0,0,1,12.45,2.92c9.72,4.74,16.88,14.54,21.3,29.16L242.67,76.6ZM195.46,20.15a8.33,8.33,0,0,1,3.61.88c3.09,1.5,7.48,5.65,10.85,16.88l9.8,32.38,7.16-2.17-9.79-32.38c-3.35-11.09-8.3-18.3-14.72-21.42a15.48,15.48,0,0,0-6.89-1.65,13.62,13.62,0,0,0-4.12.61l-8,2.42,2.17,7.17L194,20.23Z"/><g class="cls-6"><polygon class="cls-4" points="203.79 61.35 235.2 51.69 239.16 64.84 208.77 77.99 203.79 61.35"/></g><path class="cls-2" d="M251.05,71.73c1.55,6.74-8.13,14.73-21.63,17.84s-25.7.17-27.26-6.58,8.13-14.72,21.63-17.83S249.49,65,251.05,71.73Z"/><path class="cls-4" d="M215.46,219.89s31.81,38.28,60.6-2.18c0,0,26.93,22,43.59,2.23v-6.7l-38.39-11.12-37.16,5.34Z"/><path class="cls-7" d="M273,194.37a31.25,31.25,0,0,1,2.17-2.26,87.72,87.72,0,0,1,8.17-6.76,19.13,19.13,0,0,1,19.45-1.53c3.65,1.68,7,3.89,10.52,5.8a93.83,93.83,0,0,0,8.93,4.57c5,2,9.83,1.06,14.07-2.24,1.42-1.09,2.65-2.4,4-3.62.33-.3.64-.61,1.1-1.05-.52,9.48-6.49,22.77-18.54,29.07a40,40,0,0,1-26.23,3.84c-9.13-1.65-16.85-5.55-22.05-13.37-3.53,9.58-10.79,15.35-20.13,19a39,39,0,0,1-24.79,1.68A36,36,0,0,1,205.11,204c.7.44,1.38.89,2.08,1.32a19.49,19.49,0,0,0,9.18,3.29c4.55.25,8.28-1.66,11.44-4.53,3.34-3,6.36-6.41,9.75-9.4a41.19,41.19,0,0,1,8.14-5.91,18.41,18.41,0,0,1,15.78-.45c3.49,1.44,6.72,3.42,10,5.17C272,193.7,272.39,194,273,194.37Z"/><g class="cls-6"><path class="cls-4" d="M162.71,168.17l4,18.58-8,11.27-9.33-13.53S160.88,170.05,162.71,168.17Z"/></g><g class="cls-6"><path class="cls-4" d="M176.39,173a726,726,0,0,0,144.55-15.05l.32-13A713.62,713.62,0,0,1,173.87,160.3Z"/></g><path class="cls-3" d="M273.55,351c-4.05,4.22-51.8,52.4-63.56,63.43-12.49,11.9-20.61,15.39-26.56,15.39-9.58,0-13.79-7-5.66-22.07,5.95-10.88,13.93-26.7,21-38.6,7.4-12.34-1.45-13.35-4.93-15.1-7.84-4.06-19.17-16.83-8.56-30.18,8.41-10.45,21-8.42,28.15-3.77,7.68,4.93.72,14.65-8,24.09a11.68,11.68,0,0,0,3.2,2.61c11.17,6.38,25.54-1,15.82,17.56-3.63,7-4.65,7.69-10.88,19.45-2.18,3.92-6,11.9-4.8,13.06s4.65-1.88,8.27-5.08c5.67-4.64,49.5-46.44,54.86-52.1C274.86,336.77,275,349.39,273.55,351Z"/><path class="cls-3" d="M357.14,351c-1.3,1.45-32.36,39.48-54.85,35.86-1.45,2.61-3.06,5.22-4.79,8-15.82,23.66-32.94,35-48.92,35-19.73,0-30-22.36-10.88-54.57s39.19-41.8,52.11-41.8c2.6,0,3.48,3.05,3.77,6.53,3.33-3.63,7.26-5.81,11-5.81,8,0,9.87,12.19,8.27,22.2A71.59,71.59,0,0,1,309.39,371c13.51,2.47,37.45-22.51,40.79-26.85C354,339.38,358.59,349.39,357.14,351Zm-68.93,25.55c-4.79-7.55-4.65-16.69-1.89-24.39-7.4,4.36-17,14.38-23.95,26.28-9.29,15.67-10.88,28.44-3.33,28.44C268.91,406.86,280.65,390.62,288.21,376.53Z"/><path class="cls-3" d="M419.84,349.54c-13.06,19.59-41.65,40.92-60.52,50.07-9.88,25.4-24.67,30.19-39.48,30.19-9,0-21.78-2.91-19.45-15.54,1.74-10,18.87-13.35,37.44-18.28a130.07,130.07,0,0,0,3.92-16.41c4.07-22.78,5.52-51.08,30.91-52.82s-1.3,21-1.3,21-3.63,18.15-5.81,29a96.18,96.18,0,0,1-2.32,10.31c15.24-6.83,34.11-19.89,55.3-47.46C422,336.77,421,347.64,419.84,349.54Zm-93.48,67c1.75-2.32,3.63-4.34,5.53-7.25-8.42,2.61-14.81,4.93-15.39,8C315.49,422.68,322.75,421.52,326.36,416.58Z"/><path class="cls-3" d="M379,429.8c-9.57,0-13.92-7-5.65-22.07,2.9-5.37,18.43-34.53,33.67-62.83H390.22c2.47-4.65,3.92-7.27,3.92-7.27h16.68C425.2,310.79,429.69,303,429.69,303h23.09s-5.52,9.43-18.87,34.67l17.26-.14s-1.44,2.76-3.91,7.41H430c-9.58,18-18.28,34.25-20.75,38.89-2.18,3.92-6.1,11.9-4.94,13.06s4.64-1.88,8.42-5.08C424,382.05,439,386.55,439,400.91c0,20.76-16.54,52.54-68.5,52.54-4.78,0-210,1.45-255.14,34.25C98.51,476,54.71,445.46,54.71,445.46s296.32-4.2,316.79-4.2C412,441.26,432,417.6,432,406.72c0-11.75-13.21-4.79-26.41,7.69C393,426.31,385.14,429.8,379,429.8Z"/><path class="cls-3" d="M420.33,281.54l-6.64,13.06a11.42,11.42,0,0,1-10.56,6.63H178.28C166.67,323,153.4,346.62,141.38,369h36.69a5.71,5.71,0,0,1,4.76,2.69,5.9,5.9,0,0,1-.2,5.6l-8.92,17.41a12.07,12.07,0,0,1-10.35,5.59H125.63a40,40,0,0,1-2.07,3.53C88.32,466.21,55.36,478,24.69,478-24,478-1.42,395.32,99.31,383.31c11-19.9,30.46-56.59,43.95-82.08H90a4.41,4.41,0,0,1-3.94-2.29,4.48,4.48,0,0,1-.22-4.55l7.88-15.75a8.66,8.66,0,0,1,7.88-5h314a5.4,5.4,0,0,1,4.56,2.7A5.15,5.15,0,0,1,420.33,281.54Zm-331,119.6C35.88,411.08,9.76,455,28.42,455,41.27,455,64.06,442.58,89.35,401.14Z"/><path class="cls-3" d="M443.92,371.33a8.48,8.48,0,0,1-1.17,4.36,8.75,8.75,0,0,1-11.95,3.2,8.55,8.55,0,0,1-3.2-3.2,8.4,8.4,0,0,1-1.18-4.36,8.76,8.76,0,0,1,4.37-7.56,8.77,8.77,0,0,1,12,3.19A8.62,8.62,0,0,1,443.92,371.33Zm-1.81,0a6.95,6.95,0,1,0-13,3.37,6.57,6.57,0,0,0,2.55,2.52,6.86,6.86,0,0,0,3.47.92,7.09,7.09,0,0,0,6-3.4A6.7,6.7,0,0,0,442.11,371.37Zm-10.55-4.81h4.23a5,5,0,0,1,2,.29,2.37,2.37,0,0,1,1,1,2.77,2.77,0,0,1,.39,1.53,3,3,0,0,1-.23,1.25,2.5,2.5,0,0,1-.9,1,1.75,1.75,0,0,1,.73.69,3.56,3.56,0,0,1,.23,1.29c.06,1.19.13,1.89.17,2.09a1.05,1.05,0,0,0,.4.55h-2.41c-.11-.3-.17-.52-.21-.67a8.11,8.11,0,0,1,0-.89,6.37,6.37,0,0,0-.16-1.57.61.61,0,0,0-.35-.43,2.06,2.06,0,0,0-1-.16h-1.7v3.72h-2.1Zm2.1,1.84v2.28h1.75a2.38,2.38,0,0,0,1.35-.26,1.13,1.13,0,0,0,.33-.89,1,1,0,0,0-.33-.87,2.47,2.47,0,0,0-1.35-.26Z"/><path class="cls-3" d="M39.94,374a22,22,0,0,1-4.54.43,16.27,16.27,0,0,1-1.92-.07c-8.52-1-12.19-5.22-12.19-15.87v-2.27c0-1.18,0-1,.95-1h5.14c1,0,2.21,0,2.21,1.91,0,4.85,2.42,6.17,7.27,6.25,5.51,0,7.86-3.38,7.86-6.55,0-2.72-1.76-5.21-4.34-5.21-3.37,0-6.75.74-9.62.74-5.22,0-9.33-1.48-9.47-8.75,0-18.14,3.74-19.62,12.86-21.67a24.7,24.7,0,0,1,4.84-.51,12,12,0,0,1,1.62.07c8.67,1,12.34,5.29,12.34,15.95v3.74c0,1.1,0,1-1,1H46.85c-2.2,0-2.28-.29-2.28-2.71v-.52c0-4-2.64-4-7.35-4h-.8c-4.62,0-7.06.22-7.13,7.49,0,3.17,2.05,3.9,4.92,3.9,2.58,0,5.88-.66,8.82-.66,5.15,0,9.92,1.25,9.92,7.28C53,371,49.2,371.89,39.94,374Z"/><path class="cls-3" d="M81.37,352.42c0,.51.59,1.1,1.77,1.91,2.13,1.46,2.72,6.17,2.72,10.65,0,2.94,2.71,6.39,2.71,7.13,0,.07-.07.15-.22.15l-10.13-.15c-.45,0-.52-1.69-.52-3.16v-.88c0-11-.29-11.9-6-11.9H65.36l-.08,1.91.08,12c0,1.46-.15,2.05-1.55,2.05H57.42c-1.32,0-1.39-.45-1.39-2.94.14-5.14.21-11.83.21-19,0-9.1-.07-18.87-.21-27,0-1.17.14-1.69,2-1.69h12c13.45,0,19.39.37,19.39,16.38C89.45,351.6,81.37,350.29,81.37,352.42Zm-9-18.66c-1.11-.07-2.06-.07-2.87-.07-3.45,0-4.19.52-4.19,2.27l-.14,12.27v.66c0,.74.58.74,6.46.74,6.1,0,10.36-3.38,10.36-9.91C82,335.08,75.42,333.76,72.34,333.76Z"/><path class="cls-3" d="M91.58,368.07a4.2,4.2,0,0,1,4-4.19c4.11,0,5.66,2,5.66,4a4.29,4.29,0,0,1-4.11,4.27C93.12,372.11,91.58,370.12,91.58,368.07Z"/><path class="cls-4" d="M110.89,204.73a26.63,26.63,0,0,1,16.14-18,26.61,26.61,0,0,1-16.14-18,26.61,26.61,0,0,1-16.12,18A26.62,26.62,0,0,1,110.89,204.73Z"/><path class="cls-3" d="M94.77,163.62a14.74,14.74,0,0,1,8.94-10,14.72,14.72,0,0,1-8.94-10,14.74,14.74,0,0,1-9,10A14.76,14.76,0,0,1,94.77,163.62Z"/><path class="cls-4" d="M393.74,204.73a26.61,26.61,0,0,0-16.13-18,26.6,26.6,0,0,0,16.13-18,26.62,26.62,0,0,0,16.13,18A26.64,26.64,0,0,0,393.74,204.73Z"/><path class="cls-3" d="M409.87,163.62a14.74,14.74,0,0,0-8.94-10,14.72,14.72,0,0,0,8.94-10,14.74,14.74,0,0,0,8.94,10A14.76,14.76,0,0,0,409.87,163.62Z"/></g></g></g></svg>